HIERARCHY
ROOT Hips
{
	OFFSET 0.00000 0.00000 0.00000
	CHANNELS 6 Xposition Yposition Zposition Zrotation Yrotation Xrotation 
	JOINT LHipJoint
	{
		OFFSET 0 0 0
		CHANNELS 3 Zrotation Yrotation Xrotation
		JOINT LeftUpLeg
		{
			OFFSET 1.34019 -1.87553 0.90315
			CHANNELS 3 Zrotation Yrotation Xrotation
			JOINT LeftLeg
			{
				OFFSET 2.55316 -7.01474 0.00000
				CHANNELS 3 Zrotation Yrotation Xrotation
				JOINT LeftFoot
				{
					OFFSET 2.64657 -7.27139 0.00000
					CHANNELS 3 Zrotation Yrotation Xrotation
					JOINT LeftToeBase
					{
						OFFSET 0.24207 -0.66507 2.14489
						CHANNELS 3 Zrotation Yrotation Xrotation
						End Site
						{
							OFFSET 0.00000 -0.00000 1.12451
						}
					}
				}
			}
		}
	}
	JOINT RHipJoint
	{
		OFFSET 0 0 0
		CHANNELS 3 Zrotation Yrotation Xrotation
		JOINT RightUpLeg
		{
			OFFSET -1.28320 -1.87553 0.90315
			CHANNELS 3 Zrotation Yrotation Xrotation
			JOINT RightLeg
			{
				OFFSET -2.60484 -7.15674 0.00000
				CHANNELS 3 Zrotation Yrotation Xrotation
				JOINT RightFoot
				{
					OFFSET -2.60296 -7.15159 0.00000
					CHANNELS 3 Zrotation Yrotation Xrotation
					JOINT RightToeBase
					{
						OFFSET -0.31082 -0.85398 2.28998
						CHANNELS 3 Zrotation Yrotation Xrotation
						End Site
						{
							OFFSET -0.00000 -0.00000 1.21611
						}
					}
				}
			}
		}
	}
	JOINT LowerBack
	{
		OFFSET 0 0 0
		CHANNELS 3 Zrotation Yrotation Xrotation
		JOINT Spine
		{
			OFFSET -0.00160 2.05581 -0.15156
			CHANNELS 3 Zrotation Yrotation Xrotation
			JOINT Spine1
			{
				OFFSET 0.04594 2.06326 -0.01617
				CHANNELS 3 Zrotation Yrotation Xrotation
				JOINT Neck
				{
					OFFSET 0 0 0
					CHANNELS 3 Zrotation Yrotation Xrotation
					JOINT Neck1
					{
						OFFSET 0.03753 1.73883 0.26751
						CHANNELS 3 Zrotation Yrotation Xrotation
						JOINT Head
						{
							OFFSET -0.09795 1.76129 -0.31794
							CHANNELS 3 Zrotation Yrotation Xrotation
							End Site
							{
								OFFSET -0.03611 1.79987 -0.13846
							}
						}
					}
				}
				JOINT LeftShoulder
				{
					OFFSET 0 0 0
					CHANNELS 3 Zrotation Yrotation Xrotation
					JOINT LeftArm
					{
						OFFSET 3.30667 1.29205 -0.22445
						CHANNELS 3 Zrotation Yrotation Xrotation
						JOINT LeftForeArm
						{
							OFFSET 4.92785 -0.00000 -0.00000
							CHANNELS 3 Zrotation Yrotation Xrotation
							JOINT LeftHand
							{
								OFFSET 3.44052 -0.00000 0.00000
								CHANNELS 3 Zrotation Yrotation Xrotation
								JOINT LeftFingerBase
								{
									OFFSET 0 0 0
									CHANNELS 3 Zrotation Yrotation Xrotation
									JOINT LeftHandIndex1
									{
										OFFSET 0.65433 -0.00000 0.00000
										CHANNELS 3 Zrotation Yrotation Xrotation
										End Site
										{
											OFFSET 0.52753 -0.00000 0.00000
										}
									}
								}
								JOINT LThumb
								{
									OFFSET 0 0 0
									CHANNELS 3 Zrotation Yrotation Xrotation
									End Site
									{
										OFFSET 0.53559 -0.00000 0.53559
									}
								}
							}
						}
					}
				}
				JOINT RightShoulder
				{
					OFFSET 0 0 0
					CHANNELS 3 Zrotation Yrotation Xrotation
					JOINT RightArm
					{
						OFFSET -3.20032 1.49783 -0.27688
						CHANNELS 3 Zrotation Yrotation Xrotation
						JOINT RightForeArm
						{
							OFFSET -5.09181 -0.00000 -0.00000
							CHANNELS 3 Zrotation Yrotation Xrotation
							JOINT RightHand
							{
								OFFSET -3.49865 -0.00000 -0.00000
								CHANNELS 3 Zrotation Yrotation Xrotation
								JOINT RightFingerBase
								{
									OFFSET 0 0 0
									CHANNELS 3 Zrotation Yrotation Xrotation
									JOINT RightHandIndex1
									{
										OFFSET -0.66641 -0.00000 0.00000
										CHANNELS 3 Zrotation Yrotation Xrotation
										End Site
										{
											OFFSET -0.53728 -0.00000 0.00000
										}
									}
								}
								JOINT RThumb
								{
									OFFSET 0 0 0
									CHANNELS 3 Zrotation Yrotation Xrotation
									End Site
									{
										OFFSET -0.54548 -0.00000 0.54548
									}
								}
							}
						}
					}
				}
			}
		}
	}
}
MOTION
Frames: 9
Frame Time: .0083333
1.6659 16.6843 -10.2293 -2.8731 0.9879 2.0439 0.0000 0.0000 0.0000 -20.6054 -5.0132 -29.7104 8.9411 16.7697 55.8863 1.6352 2.5702 -25.1993 0.3022 -3.5345 -9.7705 0.0000 0.0000 0.0000 16.8015 4.9076 -40.4184 -16.5589 -19.7137 79.8926 -0.3482 -12.3934 -21.5459 -0.1735 2.6833 -7.3983 -1.7227 0.8074 21.7653 2.6566 0.9404 1.5040 3.6508 0.5992 -10.6322 5.3589 1.1947 -18.8335 -5.0503 1.1502 15.7861 -2.4283 0.3553 8.0451 0.0000 -0.0000 0.0000 -81.4489 1.2430 19.9885 27.0449 -38.2219 -9.5269 -0.0000 0.0000 -9.6757 22.5517 -13.1500 -5.3970 -7.1250 0.0000 -0.0000 -3.2886 15.7991 2.2728 0.0000 -0.0000 0.0000 80.8979 -6.7337 30.3445 -39.0660 47.5067 -17.7475 0.0000 -0.0000 -7.0110 -18.1398 -2.4032 0.7871 7.1250 -0.0000 -0.0000 6.8240 -32.4577 2.1087
1.6574 16.6960 -10.0979 -2.6518 1.4005 2.2814 0.0000 0.0000 0.0000 -20.8484 -4.7067 -29.5019 8.9014 16.7439 55.7485 1.6765 2.1370 -25.3140 0.3243 -3.6604 -10.1230 0.0000 0.0000 0.0000 16.1812 5.3459 -41.4084 -16.0098 -19.6139 78.2610 -0.3741 -12.3247 -21.7238 -0.1752 2.6960 -7.4335 -1.8675 0.6742 21.8140 2.5964 0.7238 1.4878 3.7341 0.5037 -10.6609 5.4157 1.2074 -18.7426 -5.0828 1.1602 15.6935 -2.4459 0.3611 7.9995 0.0000 -0.0000 0.0000 -81.3682 0.5762 20.7827 27.2992 -38.4630 -9.6846 -0.0000 0.0000 -9.7090 22.5278 -13.1330 -5.3838 -7.1250 0.0000 -0.0000 -3.3042 15.8198 2.2822 0.0000 -0.0000 0.0000 80.9965 -6.7014 30.0894 -39.3838 47.7005 -17.9821 0.0000 -0.0000 -7.0398 -18.0661 -2.6789 0.8735 7.1250 -0.0000 -0.0000 6.9087 -32.7434 2.0872
1.6488 16.7084 -9.9667 -2.4710 1.8779 2.5305 0.0000 0.0000 0.0000 -21.0514 -4.5688 -29.2547 8.8583 16.7156 55.5986 1.7050 1.8777 -25.4130 0.3452 -3.7755 -10.4458 0.0000 0.0000 0.0000 15.5848 5.7326 -42.3748 -15.4376 -19.4935 76.5515 -0.3887 -12.3065 -21.8458 -0.1741 2.6880 -7.4112 -1.9525 0.5152 21.8568 2.5505 0.4895 1.4681 3.8043 0.3975 -10.6877 5.4241 1.2009 -18.6970 -5.0829 1.1492 15.6232 -2.4476 0.3567 7.9676 -0.0000 -0.0000 0.0000 -81.2890 -0.1378 21.5355 27.5442 -38.6932 -9.8374 -0.0000 0.0000 -9.6366 22.5867 -13.1597 -5.4101 -7.1250 0.0000 -0.0000 -3.2650 15.7850 2.2574 -0.0000 -0.0000 0.0000 81.0869 -6.6847 29.8248 -39.7162 47.9009 -18.2284 0.0000 -0.0000 -7.2270 -18.0862 -2.9330 0.9574 7.1250 -0.0000 -0.0000 6.9166 -33.0093 2.0449
1.6405 16.7214 -9.8362 -2.3182 2.4117 2.7897 0.0000 0.0000 0.0000 -21.2306 -4.6064 -28.9667 8.8130 16.6859 55.4411 1.7195 1.8112 -25.4903 0.3671 -3.8920 -10.7731 0.0000 0.0000 0.0000 14.9985 6.0747 -43.3191 -14.8490 -19.3516 74.7814 -0.3886 -12.3366 -21.8788 -0.1716 2.6684 -7.3569 -1.9895 0.3390 21.9001 2.5183 0.2460 1.4433 3.8654 0.2854 -10.7193 5.4045 1.1841 -18.6289 -5.0664 1.1289 15.5281 -2.4398 0.3482 7.9227 0.0000 -0.0000 0.0000 -81.2232 -0.8915 22.2493 27.7859 -38.9184 -9.9889 -0.0000 0.0000 -9.4898 22.6720 -13.2561 -5.4716 -7.1250 0.0000 -0.0000 -3.2111 15.6728 2.2278 0.0000 -0.0000 0.0000 81.1663 -6.6968 29.5292 -40.0822 48.1185 -18.5004 0.0000 -0.0000 -7.4753 -18.1330 -3.1762 1.0395 7.1250 -0.0000 -0.0000 6.9022 -33.2646 1.9977
1.6323 16.7340 -9.7063 -2.2014 2.9828 3.0468 0.0000 0.0000 0.0000 -21.3775 -4.8053 -28.6321 8.7702 16.6575 55.2919 1.7222 1.9266 -25.5569 0.3881 -4.0003 -11.0774 0.0000 0.0000 0.0000 14.4336 6.4005 -44.2233 -14.2516 -19.1886 72.9714 -0.3708 -12.4213 -21.8007 -0.1671 2.6338 -7.2608 -1.9821 0.1547 21.9466 2.5036 0.0047 1.4219 3.9199 0.1727 -10.7488 5.3831 1.1644 -18.5873 -5.0620 1.1053 15.3990 -2.4359 0.3363 7.8710 0.0000 0.0000 0.0000 -81.1751 -1.6849 22.9254 28.0294 -39.1433 -10.1422 -0.0000 0.0000 -9.2822 22.7868 -13.3608 -5.5447 -7.1250 0.0000 -0.0000 -3.1375 15.5482 2.1850 0.0000 0.0000 0.0000 81.2310 -6.7269 29.1992 -40.4698 48.3458 -18.7895 0.0000 -0.0000 -7.7221 -18.1854 -3.3871 1.1119 7.1250 -0.0000 -0.0000 6.8805 -33.4866 1.9542
1.6239 16.7460 -9.5770 -2.1036 3.5720 3.2963 0.0000 0.0000 0.0000 -21.5107 -5.1480 -28.2568 8.7348 16.6340 55.1684 1.7148 2.2144 -25.6236 0.4081 -4.1012 -11.3616 0.0000 0.0000 0.0000 13.8741 6.7290 -45.0891 -13.6547 -19.0059 71.1471 -0.3332 -12.5723 -21.6036 -0.1610 2.5855 -7.1268 -1.9600 -0.0249 22.0046 2.5055 -0.2250 1.4049 3.9813 0.0653 -10.7808 5.3572 1.1365 -18.5207 -5.0700 1.0729 15.1892 -2.4354 0.3189 7.7879 -0.0000 0.0000 0.0000 -81.1549 -2.5162 23.5661 28.2803 -39.3730 -10.3010 -0.0000 0.0000 -9.0364 22.8879 -13.4719 -5.6171 -7.1250 0.0000 -0.0000 -3.0740 15.4181 2.1493 -0.0000 0.0000 0.0000 81.2682 -6.7787 28.8389 -40.8828 48.5843 -19.0986 0.0000 -0.0000 -7.9539 -18.2025 -3.5777 1.1755 7.1250 -0.0000 -0.0000 6.8857 -33.6863 1.9221
1.6161 16.7567 -9.4478 -2.0063 4.1424 3.5323 0.0000 0.0000 0.0000 -21.6568 -5.6105 -27.8400 8.7114 16.6184 55.0865 1.6960 2.6747 -25.6877 0.4287 -4.2018 -11.6450 0.0000 0.0000 0.0000 13.2971 7.0764 -45.9151 -13.0662 -18.8059 69.3311 -0.2741 -12.7823 -21.2562 -0.1544 2.5320 -6.9783 -1.9483 -0.1867 22.0729 2.5129 -0.4333 1.3889 4.0487 -0.0311 -10.8189 5.3861 1.1177 -18.4281 -5.1205 1.0459 14.9260 -2.4567 0.3032 7.6836 -0.0000 0.0000 0.0000 -81.1540 -3.3647 24.1791 28.5399 -39.6086 -10.4661 -0.0000 0.0000 -8.8145 22.9885 -13.5573 -5.6793 -7.1250 0.0000 -0.0000 -3.0095 15.3154 2.1107 -0.0000 0.0000 0.0000 81.2901 -6.8508 28.4566 -41.2847 48.8129 -19.4006 0.0000 -0.0000 -8.1688 -18.2308 -3.7039 1.2190 7.1250 -0.0000 -0.0000 6.8755 -33.8191 1.8970
1.6082 16.7655 -9.3190 -1.9096 4.6803 3.7632 0.0000 0.0000 0.0000 -21.8122 -6.1812 -27.4054 8.7046 16.6138 55.0628 1.6674 3.2690 -25.7520 0.4500 -4.3039 -11.9333 0.0000 0.0000 0.0000 12.7034 7.4590 -46.7215 -12.4936 -18.5916 67.5451 -0.1939 -13.0553 -20.7604 -0.1468 2.4687 -6.8028 -1.9564 -0.3254 22.1374 2.5238 -0.6157 1.3833 4.1236 -0.1148 -10.8451 5.4185 1.0939 -18.3458 -5.1536 1.0068 14.6465 -2.4740 0.2835 7.5751 -0.0000 -0.0000 0.0000 -81.1778 -4.2642 24.7453 28.7942 -39.8372 -10.6287 -0.0000 0.0000 -8.6343 23.0440 -13.6164 -5.7187 -7.1250 0.0000 -0.0000 -2.9748 15.2458 2.0907 -0.0000 -0.0000 0.0000 81.3000 -6.9120 28.0611 -41.6472 49.0161 -19.6738 0.0000 -0.0000 -8.3909 -18.2848 -3.7233 1.2292 7.1250 -0.0000 -0.0000 6.8335 -33.8413 1.8816
1.6001 16.7721 -9.1905 -1.8245 5.1525 3.9863 0.0000 0.0000 0.0000 -21.9631 -6.8187 -26.9667 8.7165 16.6218 55.1043 1.6274 3.9891 -25.8109 0.4709 -4.4010 -12.2077 0.0000 0.0000 0.0000 12.1073 7.9020 -47.5086 -11.9418 -18.3659 65.8041 -0.1007 -13.3631 -20.1513 -0.1382 2.3959 -6.6011 -1.9914 -0.4292 22.2046 2.5419 -0.7584 1.3812 4.2102 -0.1782 -10.8714 5.4527 1.0654 -18.2611 -5.1653 0.9573 14.3800 -2.4857 0.2612 7.4702 0.0000 0.0000 0.0000 -81.2200 -5.2008 25.2833 29.0448 -40.0604 -10.7895 -0.0000 0.0000 -8.5370 23.0872 -13.6591 -5.7481 -7.1250 0.0000 -0.0000 -2.9475 15.1952 2.0747 0.0000 0.0000 0.0000 81.2879 -6.9745 27.6660 -41.9700 49.1947 -19.9178 0.0000 -0.0000 -8.6200 -18.3282 -3.6979 1.2240 7.1250 -0.0000 -0.0000 6.7956 -33.8165 1.8751
